# xmcd CD database file
#
# Track frame offsets:
#	150
#	10301
#	26369
#	39488
#	52043
#	66612
#	78762
#	92536
#	109907
#	122343
#
# Disc length: 1911 seconds
#
# Revision: 0
# Processed by: cddbd v1.5.2PL0 Copyright (c) Steve Scherf et al.
# Submitted via: CDex 1.51
#
DISCID=7707750a
DTITLE=Emmylou Harris - 1986 Thirteen
DYEAR=1986
DGENRE=Country
TTITLE0=Mystert train
TTITLE1=You're Free To Go
TTITLE2=Sweetheart of the Pines
TTITLE3=Just Someone I Used to Know
TTITLE4=My Father's House
TTITLE5=Lacassine Special
TTITLE6=Today I Started Loving You Again
TTITLE7=When I Was Yours
TTITLE8=I Had My Heart Set on You
TTITLE9=Your Long Journey
EXTD=YEAR: 1986
EXTT0=
EXTT1=
EXTT2=
EXTT3=
EXTT4=
EXTT5=
EXTT6=
EXTT7=
EXTT8=
EXTT9=
PLAYORDER=
